<svg xmlns="http://www.w3.org/2000/svg" width="30" height="30" viewBox="0 0 30 30">
    <g fill="none" fill-rule="evenodd" transform="translate(-3 -3)">
        <rect width="36" height="36" rx="5"/>
        <path fill="#FFF" d="M28.944 3H7.04A4.04 4.04 0 0 0 3 7.04v21.904a4.04 4.04 0 0 0 4.04 4.04h10.802l.019-10.714h-2.784a.657.657 0 0 1-.657-.655l-.013-3.454a.657.657 0 0 1 .657-.659h2.778v-3.337c0-3.873 2.366-5.982 5.82-5.982h2.835c.363 0 .657.294.657.657v2.912a.657.657 0 0 1-.656.657l-1.74.001c-1.879 0-2.243.893-2.243 2.203v2.89h4.129c.393 0 .698.343.652.733l-.41 3.454c-.039.33-.319.58-.652.58h-3.7l-.019 10.714h6.428a4.04 4.04 0 0 0 4.04-4.04V7.04A4.04 4.04 0 0 0 28.944 3z"/>
    </g>
</svg>
