<svg xmlns="http://www.w3.org/2000/svg" width="30" height="30" viewBox="0 0 30 30">
    <g fill="none" fill-rule="evenodd" transform="translate(-3 -3)">
        <rect width="36" height="36" rx="5"/>
        <g fill="#FFF" transform="translate(3 3)">
            <path fill-rule="nonzero" d="M21.026 0H8.922C4.002 0 0 4.002 0 8.922v12.104c0 4.92 4.002 8.922 8.922 8.922h12.104c4.92 0 8.922-4.003 8.922-8.922V8.922c0-4.92-4.003-8.922-8.922-8.922zm5.909 21.026a5.909 5.909 0 0 1-5.909 5.909H8.922a5.909 5.909 0 0 1-5.91-5.909V8.922a5.909 5.909 0 0 1 5.91-5.91h12.104a5.909 5.909 0 0 1 5.909 5.91v12.104z"/>
            <path fill-rule="nonzero" d="M14.974 7.228c-4.271 0-7.746 3.475-7.746 7.746 0 4.27 3.475 7.745 7.746 7.745 4.27 0 7.745-3.474 7.745-7.745s-3.474-7.746-7.745-7.746zm0 12.479a4.733 4.733 0 1 1 0-9.466 4.733 4.733 0 0 1 0 9.466z"/>
            <circle cx="22.734" cy="7.286" r="1.856"/>
        </g>
    </g>
</svg>
