<svg xmlns="http://www.w3.org/2000/svg" width="30" height="30" viewBox="0 0 30 30">
    <g fill="none" fill-rule="evenodd" transform="translate(-3 -3)">
        <rect width="36" height="36" rx="5"/>
        <path fill="#FFF" fill-rule="nonzero" d="M30.286 3H5.714A2.714 2.714 0 0 0 3 5.714v24.572A2.714 2.714 0 0 0 5.714 33h24.572A2.714 2.714 0 0 0 33 30.286V5.714A2.714 2.714 0 0 0 30.286 3zM12.283 28.904a.79.79 0 0 1-.79.79H8.133a.79.79 0 0 1-.79-.79V14.812a.79.79 0 0 1 .79-.79h3.362a.79.79 0 0 1 .79.79v14.092zm-2.47-16.21a3.194 3.194 0 1 1 0-6.388 3.194 3.194 0 0 1 0 6.388zm20.039 16.274a.726.726 0 0 1-.727.726h-3.607a.726.726 0 0 1-.726-.726v-6.61c0-.987.29-4.321-2.577-4.321-2.223 0-2.674 2.282-2.765 3.307v7.624a.726.726 0 0 1-.726.726h-3.489a.726.726 0 0 1-.726-.726v-14.22c0-.4.325-.726.726-.726h3.49c.4 0 .725.325.725.726v1.23c.825-1.238 2.05-2.192 4.658-2.192 5.777 0 5.744 5.396 5.744 8.361v6.82z"/>
    </g>
</svg>
