<svg xmlns="http://www.w3.org/2000/svg" width="30" height="25" viewBox="0 0 30 25">
    <g fill="none" fill-rule="evenodd" transform="translate(-3 -6)">
        <rect width="36" height="36" rx="5"/>
        <path fill="#FFF" d="M32.462 8.937c-.665.296-1.356.529-2.064.697a6.447 6.447 0 0 0 1.699-2.71.338.338 0 0 0-.494-.393 11.902 11.902 0 0 1-3.156 1.306.836.836 0 0 1-.75-.187 6.449 6.449 0 0 0-4.27-1.614c-.681 0-1.37.106-2.045.316a6.259 6.259 0 0 0-4.214 4.512c-.19.8-.242 1.6-.153 2.38a.24.24 0 0 1-.26.261c-4.58-.426-8.712-2.636-11.632-6.223a.337.337 0 0 0-.553.043 6.466 6.466 0 0 0-.874 3.25c0 1.752.703 3.403 1.924 4.607a5.779 5.779 0 0 1-1.472-.57.337.337 0 0 0-.501.29 6.473 6.473 0 0 0 3.77 5.963 5.77 5.77 0 0 1-1.226-.102.338.338 0 0 0-.385.435 6.472 6.472 0 0 0 5.11 4.406 11.898 11.898 0 0 1-6.67 2.03l-.747-.001c-.23 0-.425.15-.483.373a.512.512 0 0 0 .244.566 17.696 17.696 0 0 0 8.902 2.403c2.736 0 5.296-.543 7.607-1.616a16.8 16.8 0 0 0 5.567-4.177 18.318 18.318 0 0 0 3.408-5.716c.758-2.028 1.158-4.191 1.158-6.257v-.098c0-.332.15-.644.411-.856a12.77 12.77 0 0 0 2.567-2.821c.187-.282-.109-.634-.418-.497z"/>
    </g>
</svg>
