<svg xmlns="http://www.w3.org/2000/svg" width="30" height="21" viewBox="0 0 30 21">
    <g fill="none" fill-rule="evenodd" transform="translate(-3 -8)">
        <rect width="36" height="36" rx="5"/>
        <path fill="#FFF" fill-rule="nonzero" d="M26.718 8.025h-17.5C5.783 8.025 3 10.778 3 14.174v8.652c0 3.396 2.784 6.149 6.217 6.149h17.501c3.434 0 6.217-2.753 6.217-6.149v-8.652c0-3.396-2.783-6.149-6.217-6.149zm-4.205 10.896l-8.185 3.861a.328.328 0 0 1-.47-.293v-7.964c0-.242.258-.4.477-.29l8.185 4.103a.323.323 0 0 1-.007.583z"/>
    </g>
</svg>
